<svg id="Layer_1" data-name="Layer 1" xmlns="http://www.w3.org/2000/svg" viewBox="0 0 32 32"><defs><style>.cls-1{fill:#ffd550;}</style></defs><path class="cls-1" d="M16.17,23.83a8,8,0,1,0-8-8A8,8,0,0,0,16.17,23.83Zm0-15a7,7,0,1,1-7,7A7,7,0,0,1,16.17,8.83Z"/><path class="cls-1" d="M15.5,5.5A.5.5,0,0,0,16,5V1a.5.5,0,0,0-1,0V5A.5.5,0,0,0,15.5,5.5Z"/><path class="cls-1" d="M16,31V27a.5.5,0,0,0-1,0v4a.5.5,0,0,0,1,0Z"/><path class="cls-1" d="M5.5,16.5A.5.5,0,0,0,5,16H1a.5.5,0,0,0-.5.5A.5.5,0,0,0,1,17H5A.5.5,0,0,0,5.5,16.5Z"/><path class="cls-1" d="M31,16H27a.5.5,0,0,0-.5.5.51.51,0,0,0,.5.5h4a.51.51,0,0,0,.5-.5A.5.5,0,0,0,31,16Z"/><path class="cls-1" d="M6.08,26.79,8.91,24a.5.5,0,0,0,0-.7.5.5,0,0,0-.71,0L5.37,26.09a.5.5,0,0,0,0,.7.51.51,0,0,0,.36.15A.49.49,0,0,0,6.08,26.79Z"/><path class="cls-1" d="M24.11,8.56a.51.51,0,0,0,.36-.15l2.82-2.83a.5.5,0,0,0,0-.71.5.5,0,0,0-.7,0L23.76,7.7a.5.5,0,0,0,0,.71A.47.47,0,0,0,24.11,8.56Z"/><path class="cls-1" d="M24.47,23.26a.5.5,0,0,0-.71.71l2.83,2.82a.49.49,0,0,0,.35.15.51.51,0,0,0,.36-.15.5.5,0,0,0,0-.7Z"/><path class="cls-1" d="M8.2,8.41a.51.51,0,0,0,.36.15.5.5,0,0,0,.35-.15.51.51,0,0,0,0-.71L6.08,4.87a.5.5,0,1,0-.71.71Z"/></svg>