<svg id="Layer_1" data-name="Layer 1" xmlns="http://www.w3.org/2000/svg" viewBox="0 0 24 24"><defs><style>.cls-1{fill:#7cd5ff;}.cls-2{fill:#ff9c52;}</style></defs><path class="cls-1" d="M14,22a6,6,0,0,1-2.51-.55,6.13,6.13,0,0,1-.9-.51.5.5,0,0,1-.13-.7.51.51,0,0,1,.7-.13,4.28,4.28,0,0,0,.75.43,5,5,0,0,0,6.63-6.63L14,3.73,11.56,9.2a.5.5,0,0,1-.66.25.49.49,0,0,1-.25-.66L13.54,2.3a.53.53,0,0,1,.92,0l5,11.2A6,6,0,0,1,14,22Z"/><path class="cls-2" d="M12,12.44A11.24,11.24,0,0,1,8.86,12a7.71,7.71,0,0,0-5.14,0,.5.5,0,1,1-.44-.9c.08,0,2.21-1.07,5.86,0a7.79,7.79,0,0,0,5.14,0,.5.5,0,0,1,.44.9A6.57,6.57,0,0,1,12,12.44Z"/><path class="cls-2" d="M12,15.44A11.24,11.24,0,0,1,8.86,15a7.71,7.71,0,0,0-5.14,0,.5.5,0,1,1-.44-.9c.08,0,2.21-1.07,5.86,0a7.71,7.71,0,0,0,5.14,0,.5.5,0,1,1,.44.9A6.57,6.57,0,0,1,12,15.44Z"/><path class="cls-2" d="M12,18.44A11.24,11.24,0,0,1,8.86,18a7.79,7.79,0,0,0-5.14,0,.5.5,0,1,1-.44-.9c.08,0,2.21-1.07,5.86,0a7.71,7.71,0,0,0,5.14,0,.5.5,0,0,1,.44.9A6.57,6.57,0,0,1,12,18.44Z"/></svg>