<svg id="Layer_1" data-name="Layer 1" xmlns="http://www.w3.org/2000/svg" viewBox="0 0 24 24"><defs><style>.cls-1{fill:#7cd5ff;}.cls-2{fill:#fff;}</style></defs><path class="cls-1" d="M12,2A10,10,0,1,0,22,12,10,10,0,0,0,12,2Zm0,19a9,9,0,1,1,9-9A9,9,0,0,1,12,21Z"/><path class="cls-2" d="M17.5,14.77a2,2,0,0,0-1-.27,2,2,0,0,0-1,.28L13.72,13A2,2,0,0,0,14,12a2,2,0,0,0-2-2,2,2,0,0,0-1,.28L8.71,8H10.5a.5.5,0,0,0,0-1h-3a.5.5,0,0,0-.5.5v3a.5.5,0,0,0,1,0V8.71L10.28,11A2,2,0,0,0,10,12a2,2,0,0,0,2,2,2,2,0,0,0,1-.28l1.77,1.77a2,2,0,0,0-.28,1,2,2,0,0,0,.27,1,.5.5,0,0,0,.43.25.45.45,0,0,0,.25-.07.49.49,0,0,0,.18-.68,1.06,1.06,0,0,1-.13-.5,1,1,0,0,1,1-1,1.06,1.06,0,0,1,.5.13.5.5,0,0,0,.5-.86ZM12,13a1,1,0,1,1,1-1A1,1,0,0,1,12,13Z"/></svg>