<svg id="Layer_1" data-name="Layer 1" xmlns="http://www.w3.org/2000/svg" viewBox="0 0 24 24"><defs><style>.cls-1{fill:#ff9c52;}</style></defs><rect class="cls-1" x="11" y="9" width="1" height="4" rx="0.5"/><rect class="cls-1" x="17.72" y="11.78" width="1" height="4" rx="0.5" transform="translate(15.08 -8.84) rotate(45)"/><rect class="cls-1" x="4.28" y="11.78" width="1" height="4" rx="0.5" transform="translate(17.91 20.15) rotate(135)"/><path class="cls-1" d="M6.62,19.9l-.11,0a.5.5,0,0,1-.38-.59,5.51,5.51,0,0,1,10.74,0,.5.5,0,0,1-.38.6.5.5,0,0,1-.6-.38,4.5,4.5,0,0,0-8.78,0A.5.5,0,0,1,6.62,19.9Z"/></svg>