<svg id="Layer_1" data-name="Layer 1" xmlns="http://www.w3.org/2000/svg" viewBox="0 0 24 24"><defs><style>.cls-1{fill:#66d871;}.cls-2{fill:#bde57f;}.cls-3{fill:#f4e41c;}.cls-4{fill:#f9c900;}.cls-5{fill:#ff9c52;}.cls-6{fill:#ff6561;}.cls-7{fill:#e67dff;}.cls-8{fill:#9053f2;}.cls-9{fill:#fff;}</style></defs><path class="cls-1" d="M21.5,20h-7a.5.5,0,0,1,0-1h7a.5.5,0,0,1,0,1Z"/><path class="cls-2" d="M21.5,18h-7a.5.5,0,0,1,0-1h7a.5.5,0,0,1,0,1Z"/><path class="cls-3" d="M21.5,16h-7a.5.5,0,0,1,0-1h7a.5.5,0,0,1,0,1Z"/><path class="cls-4" d="M21.5,14h-7a.5.5,0,0,1,0-1h7a.5.5,0,0,1,0,1Z"/><path class="cls-5" d="M21.5,12h-7a.5.5,0,0,1,0-1h7a.5.5,0,0,1,0,1Z"/><path class="cls-6" d="M21.5,10h-7a.5.5,0,0,1,0-1h7a.5.5,0,0,1,0,1Z"/><path class="cls-7" d="M21.5,8h-7a.5.5,0,0,1,0-1h7a.5.5,0,0,1,0,1Z"/><path class="cls-8" d="M21.5,6h-7a.5.5,0,0,1,0-1h7a.5.5,0,0,1,0,1Z"/><path class="cls-9" d="M4.5,16A2.5,2.5,0,0,1,2,13.5v-3a.5.5,0,0,1,1,0v3a1.5,1.5,0,0,0,3,0v-3a.5.5,0,0,1,1,0v3A2.5,2.5,0,0,1,4.5,16Z"/><path class="cls-9" d="M10.5,16a.49.49,0,0,1-.46-.31l-2-5A.5.5,0,1,1,9,10.31l1.54,3.84L12,10.31a.5.5,0,0,1,.92.38l-2,5A.49.49,0,0,1,10.5,16Z"/></svg>