<svg id="Layer_1" data-name="Layer 1" xmlns="http://www.w3.org/2000/svg" viewBox="0 0 24 24"><defs><style>.cls-1{fill:#7cd5ff;}.cls-2{fill:#fff;}</style></defs><path class="cls-1" d="M12,18c-5.43,0-9.72-5.46-9.9-5.69a.51.51,0,0,1,0-.62C2.28,11.46,6.57,6,12,6s9.72,5.46,9.9,5.69a.51.51,0,0,1,0,.62C21.72,12.54,17.43,18,12,18ZM3.15,12c1,1.13,4.61,5,8.85,5s7.88-3.87,8.85-5c-1-1.13-4.61-5-8.85-5S4.12,10.87,3.15,12Z"/><path class="cls-2" d="M12,16a4,4,0,1,1,4-4A4,4,0,0,1,12,16Zm0-7a3,3,0,1,0,3,3A3,3,0,0,0,12,9Z"/></svg>