<svg id="Layer_1" data-name="Layer 1" xmlns="http://www.w3.org/2000/svg" viewBox="0 0 24 24"><defs><style>.cls-1{fill:#fff;}</style></defs><path class="cls-1" d="M14,22a5.92,5.92,0,0,1-2.62-.6,1,1,0,0,1,.88-1.8A3.86,3.86,0,0,0,14,20a4,4,0,0,0,3.81-5.23L14,5.61,12.79,8.52A1,1,0,1,1,11,7.75l2.13-5.13A1,1,0,0,1,14,2h0a1,1,0,0,1,.92.62l4.76,11.44A5.93,5.93,0,0,1,20,16,6,6,0,0,1,14,22Z"/><path class="cls-1" d="M11.37,13.66a5.44,5.44,0,0,1-2.89-.81,4.17,4.17,0,0,0-4,0,1,1,0,1,1-1-1.74,6.21,6.21,0,0,1,6,0,4.17,4.17,0,0,0,4,0,1,1,0,0,1,1,1.74A6.94,6.94,0,0,1,11.37,13.66Z"/><path class="cls-1" d="M11.37,17.66a5.44,5.44,0,0,1-2.89-.81,4.17,4.17,0,0,0-4,0,1,1,0,0,1-1-1.74,6.21,6.21,0,0,1,6,0,4.17,4.17,0,0,0,4,0,1,1,0,0,1,1,1.74A6.94,6.94,0,0,1,11.37,17.66Z"/></svg>