<svg id="Layer_1" data-name="Layer 1" xmlns="http://www.w3.org/2000/svg" viewBox="0 0 24 24"><defs><style>.cls-1{fill:#fff;}</style></defs><path class="cls-1" d="M12,2A10,10,0,1,0,22,12,10,10,0,0,0,12,2Zm0,18a8,8,0,1,1,8-8A8,8,0,0,1,12,20Z"/><path class="cls-1" d="M16.33,13.51a5,5,0,0,0-1,.35l-1.56-1.55a1.63,1.63,0,0,0,0-.31A1.75,1.75,0,0,0,12,10.25a1.63,1.63,0,0,0-.31,0L10.41,9H12a1,1,0,0,0,0-2H8a1,1,0,0,0-.38.08,1,1,0,0,0-.54.54A1,1,0,0,0,7,8v4a1,1,0,0,0,2,0V10.41l1.28,1.28a1.63,1.63,0,0,0,0,.31A1.75,1.75,0,0,0,12,13.75a1.63,1.63,0,0,0,.31,0l1.55,1.56a5,5,0,0,0-.35,1,1,1,0,0,0,.81,1.15l.18,0a1,1,0,0,0,1-.82,1.88,1.88,0,0,1,.38-.82,1.83,1.83,0,0,1,.82-.38,1,1,0,0,0,.81-1.15A1,1,0,0,0,16.33,13.51Z"/></svg>