<svg id="Layer_1" data-name="Layer 1" xmlns="http://www.w3.org/2000/svg" viewBox="0 0 24 24"><defs><style>.cls-1{fill:#fff;}</style></defs><rect class="cls-1" x="11" y="5" width="2" height="4" rx="1"/><rect class="cls-1" x="20" y="14" width="2" height="4" rx="1" transform="translate(37 -5) rotate(90)"/><rect class="cls-1" x="2" y="14" width="2" height="4" rx="1" transform="translate(19 13) rotate(90)"/><rect class="cls-1" x="17.36" y="7.64" width="2" height="4" rx="1" transform="translate(12.19 -10.16) rotate(45)"/><rect class="cls-1" x="4.64" y="7.64" width="2" height="4" rx="1" transform="translate(16.44 12.46) rotate(135)"/><path class="cls-1" d="M8.83,17.47A3.44,3.44,0,0,1,8.5,16a3.5,3.5,0,0,1,7,0,3.44,3.44,0,0,1-.33,1.47,10.8,10.8,0,0,1,1.86.75A5.5,5.5,0,1,0,7,18.22,10.8,10.8,0,0,1,8.83,17.47Z"/></svg>