<svg id="Layer_1" data-name="Layer 1" xmlns="http://www.w3.org/2000/svg" viewBox="0 0 24 24"><defs><style>.cls-1{fill:#fff;}</style></defs><rect class="cls-1" x="15" y="19" width="8" height="2" rx="1"/><rect class="cls-1" x="15" y="15" width="8" height="2" rx="1"/><rect class="cls-1" x="15" y="11" width="8" height="2" rx="1"/><rect class="cls-1" x="15" y="7" width="8" height="2" rx="1"/><rect class="cls-1" x="15" y="3" width="8" height="2" rx="1"/><path class="cls-1" d="M4,16a3.08,3.08,0,0,1-3-3.14V9A1,1,0,0,1,3,9v3.86A1.08,1.08,0,0,0,4,14a1.08,1.08,0,0,0,1-1.14V9A1,1,0,0,1,7,9v3.86A3.08,3.08,0,0,1,4,16Z"/><path class="cls-1" d="M11,16a1,1,0,0,1-.95-.68l-2-6A1,1,0,1,1,10,8.68L11,12l1.05-3.32a1,1,0,0,1,1.9.64l-2,6A1,1,0,0,1,11,16Z"/></svg>