<svg id="Layer_1" data-name="Layer 1" xmlns="http://www.w3.org/2000/svg" viewBox="0 0 24 24"><defs><style>.cls-1{fill:#fff;}</style></defs><path class="cls-1" d="M18.5,2A2.5,2.5,0,1,0,21,4.5,2.5,2.5,0,0,0,18.5,2Zm0,4A1.5,1.5,0,1,1,20,4.5,1.5,1.5,0,0,1,18.5,6Z"/><path class="cls-1" d="M18.25,12.07,12,2,5.75,12.06A6.71,6.71,0,0,0,5,15.14,6.93,6.93,0,0,0,12,22a6.93,6.93,0,0,0,7-6.86A6.63,6.63,0,0,0,18.25,12.07ZM12,20.5a5.54,5.54,0,0,1-3.9-1.58,5.26,5.26,0,0,1-1.6-3.78,5.2,5.2,0,0,1,.56-2.34l4.94-8,4.94,8a5.2,5.2,0,0,1,.56,2.34A5.44,5.44,0,0,1,12,20.5Z"/></svg>