<svg id="Layer_1" data-name="Layer 1" xmlns="http://www.w3.org/2000/svg" viewBox="0 0 24 24"><defs><style>.cls-1{fill:#fff;}</style></defs><path class="cls-1" d="M12,2A10,10,0,1,0,22,12,10,10,0,0,0,12,2Zm0,18.5A8.5,8.5,0,1,1,20.5,12,8.51,8.51,0,0,1,12,20.5Z"/><path class="cls-1" d="M17.29,14H15.06l-1.62-1.62A1.21,1.21,0,0,0,13.5,12,1.5,1.5,0,0,0,12,10.5a1.21,1.21,0,0,0-.38.06L9.56,8.5h1.23a.75.75,0,0,0,0-1.5H7v3.75a.75.75,0,0,0,1.5,0V9.56l2.06,2.06a1.21,1.21,0,0,0-.06.38A1.5,1.5,0,0,0,12,13.5a1.21,1.21,0,0,0,.38-.06L14,15.06v2.19a.75.75,0,0,0,1.5,0V15.5h1.79a.75.75,0,0,0,0-1.5Z"/></svg>