<svg id="Layer_1" data-name="Layer 1" xmlns="http://www.w3.org/2000/svg" viewBox="0 0 24 24"><defs><style>.cls-1,.cls-2{fill:#fff;}.cls-2{fill-rule:evenodd;}</style></defs><rect class="cls-1" x="11.25" y="4" width="1.5" height="3" rx="0.5"/><rect class="cls-1" x="20.75" y="13.5" width="1.5" height="3" rx="0.5" transform="translate(36.5 -6.5) rotate(90)"/><rect class="cls-1" x="1.75" y="13.5" width="1.5" height="3" rx="0.5" transform="translate(17.5 12.5) rotate(90)"/><rect class="cls-1" x="17.97" y="6.78" width="1.5" height="3" rx="0.5" transform="translate(11.34 -10.81) rotate(45)"/><rect class="cls-1" x="4.53" y="6.78" width="1.5" height="3" rx="0.5" transform="translate(14.87 10.4) rotate(135)"/><path class="cls-2" d="M6.9,17a5.41,5.41,0,0,1-.26-3.28A5.5,5.5,0,0,1,17.5,15a5.34,5.34,0,0,1-.4,2,.52.52,0,0,0,.19.63,9.42,9.42,0,0,1,.86.67,7,7,0,1,0-12.3,0,9.42,9.42,0,0,1,.86-.67A.52.52,0,0,0,6.9,17Z"/></svg>