<svg id="Layer_1" data-name="Layer 1" xmlns="http://www.w3.org/2000/svg" viewBox="0 0 24 24"><defs><style>.cls-1{fill:#fff;fill-rule:evenodd;}</style></defs><path class="cls-1" d="M11,17h0V9.5h1.5V17h0a1.5,1.5,0,1,0,1.88-1.45h0a.5.5,0,0,1-.38-.49v-.51a.5.5,0,0,1,.5-.5l.13,0h0A3,3,0,1,1,11,17Z"/><path class="cls-1" d="M12,4C7.08,4,3.1,7.5,3,11.86A21.2,21.2,0,0,1,12,10a21.2,21.2,0,0,1,9,1.86C20.9,7.5,16.92,4,12,4ZM5.11,9.46A7.63,7.63,0,0,1,12,5.5a7.63,7.63,0,0,1,6.89,4A24.46,24.46,0,0,0,12,8.5,24.46,24.46,0,0,0,5.11,9.46Z"/></svg>