<svg id="Layer_1" data-name="Layer 1" xmlns="http://www.w3.org/2000/svg" viewBox="0 0 24 24"><defs><style>.cls-1{fill:#fff;}</style></defs><rect class="cls-1" x="15" y="19" width="7" height="1.5" rx="0.5"/><rect class="cls-1" x="15" y="15" width="7" height="1.5" rx="0.5"/><rect class="cls-1" x="15" y="11" width="7" height="1.5" rx="0.5"/><rect class="cls-1" x="15" y="7" width="7" height="1.5" rx="0.5"/><rect class="cls-1" x="15" y="3" width="7" height="1.5" rx="0.5"/><path class="cls-1" d="M3.75,15.5A2.75,2.75,0,0,1,1,12.75v-4a.75.75,0,0,1,1.5,0v4a1.25,1.25,0,0,0,2.5,0v-4a.75.75,0,0,1,1.5,0v4A2.75,2.75,0,0,1,3.75,15.5Z"/><path class="cls-1" d="M9.75,15.5A.75.75,0,0,1,9,15L7,9a.75.75,0,1,1,1.42-.48l1.29,3.87L11,8.51A.75.75,0,1,1,12.46,9l-2,6A.75.75,0,0,1,9.75,15.5Z"/></svg>