<svg id="Layer_1" data-name="Layer 1" xmlns="http://www.w3.org/2000/svg" viewBox="0 0 24 24"><defs><style>.cls-1{fill:#fff;fill-rule:evenodd;}</style></defs><path class="cls-1" d="M19,13H2.5a.5.5,0,0,0-.5.5V14a.5.5,0,0,0,.5.5H19a1.5,1.5,0,1,1-1.45,1.88h0a.5.5,0,0,0-.49-.38h-.51a.5.5,0,0,0-.5.5.59.59,0,0,0,0,.13h0A3,3,0,1,0,19,13Z"/><path class="cls-1" d="M16,11H2.5a.5.5,0,0,1-.5-.5V10a.5.5,0,0,1,.5-.5H16a1.5,1.5,0,1,0-1.45-1.88h0a.5.5,0,0,1-.49.38h-.51a.5.5,0,0,1-.5-.5.59.59,0,0,1,0-.13h0A3,3,0,1,1,16,11Z"/></svg>