<svg id="Layer_1" data-name="Layer 1" xmlns="http://www.w3.org/2000/svg" viewBox="0 0 24 24"><defs><style>.cls-1{fill:#00e1ff;}.cls-2{fill:#00c6f4;}.cls-3{fill:#ff4800;}</style></defs><path class="cls-1" d="M15,2a.67.67,0,0,0-.55.39L9.2,11.31l-.45.75A6.83,6.83,0,0,0,8,15.14a7,7,0,0,0,14,0,6.63,6.63,0,0,0-.75-3.07l-.45-.77L15.55,2.39A.67.67,0,0,0,15,2Z"/><path class="cls-2" d="M21.25,12.07l-.45-.77L15.55,2.39A.67.67,0,0,0,15,2V22a6.93,6.93,0,0,0,7-6.86A6.63,6.63,0,0,0,21.25,12.07Z"/><path class="cls-3" d="M12,12.76a.25.25,0,0,1-.26.24H1.26A.25.25,0,0,1,1,12.76v-.52A.25.25,0,0,1,1.26,12H11.74a.25.25,0,0,1,.26.24Z"/><path class="cls-3" d="M12,15.76a.23.23,0,0,1-.21.24H3.21A.23.23,0,0,1,3,15.76v-.52A.23.23,0,0,1,3.21,15h8.58a.23.23,0,0,1,.21.24Z"/><path class="cls-3" d="M12,18.76c0,.13-.08.24-.17.24H5.17c-.09,0-.17-.11-.17-.24v-.52c0-.13.08-.24.17-.24h6.66c.09,0,.17.11.17.24Z"/></svg>