<svg id="Layer_1" data-name="Layer 1" xmlns="http://www.w3.org/2000/svg" viewBox="0 0 24 24"><defs><style>.cls-1{fill:#fff;}.cls-2{fill:#122c3d;opacity:0.2;}.cls-3{fill:#00e1ff;}.cls-4{fill:#00c6f4;}.cls-5{fill:#98d24d;}</style></defs><path class="cls-1" d="M13,3.33v0h0c0-.17-.23-.29-.49-.29s-.46.12-.49.29h0v0h0V19h1V3.33Z"/><polygon class="cls-2" points="12 11.78 13 12.56 13 9.72 12 9.72 12 11.78"/><path class="cls-3" d="M12.52,4h0c-4.95,0-9,3.25-9.5,7.41A2.4,2.4,0,0,1,5.35,9.72,2.37,2.37,0,0,1,7.72,11.5h0a2.37,2.37,0,0,1,2.37-1.78,2.37,2.37,0,0,1,2.36,1.78h0a2.46,2.46,0,0,1,4.73,0h0a2.37,2.37,0,0,1,2.37-1.78A2.4,2.4,0,0,1,22,11.32C21.46,7.21,17.42,4,12.52,4ZM7.75,11.42a1.7,1.7,0,0,1,0-.26A1.7,1.7,0,0,0,7.75,11.42Z"/><path class="cls-4" d="M22,11.32C21.46,7.21,17.42,4,12.52,4c4.24,1.21,4.76,7.46,4.77,7.5h0a2.37,2.37,0,0,1,2.37-1.78A2.4,2.4,0,0,1,22,11.32Z"/><path class="cls-4" d="M7.74,11.5h0a2.37,2.37,0,0,1,2.37-1.78,2.37,2.37,0,0,1,2.36,1.78h0V4C8.26,5.21,7.74,11.46,7.74,11.5Z"/><path class="cls-5" d="M12,18v1.5a1,1,0,0,1-2,0,.5.5,0,0,0-.5-.5.5.5,0,0,0-.5.5,2,2,0,0,0,4,0V18Z"/></svg>