<svg id="Layer_1" data-name="Layer 1" xmlns="http://www.w3.org/2000/svg" xmlns:xlink="http://www.w3.org/1999/xlink" viewBox="0 0 24 24"><defs><style>.cls-1{fill:none;}.cls-2{clip-path:url(#clip-path);}.cls-3{fill:#ff9827;}.cls-4{fill:#ff6d00;}.cls-5{fill:#fff;opacity:0.15;}.cls-6{fill:#ff4800;}</style><clipPath id="clip-path"><rect class="cls-1" y="8" width="24" height="9"/></clipPath></defs><g class="cls-2"><path class="cls-3" d="M21,20A9,9,0,1,1,12,11.05,9,9,0,0,1,21,20Z"/><path class="cls-3" d="M4.63,11.81l-.82.82a1.09,1.09,0,0,0,0,1.53l.8.79A9,9,0,0,1,7,12.61l-.79-.8A1.09,1.09,0,0,0,4.63,11.81Zm14.74,0a1.09,1.09,0,0,0-1.53,0l-.79.8A9,9,0,0,1,19.39,15l.79-.79a1.07,1.07,0,0,0,0-1.53ZM12.57,9H11.42a1.09,1.09,0,0,0-1.08,1.08v1.13a8.69,8.69,0,0,1,3.32,0V10.08A1.09,1.09,0,0,0,12.57,9ZM2.08,18.34A1.09,1.09,0,0,0,1,19.43v1.15a1.09,1.09,0,0,0,1.08,1.08H3.21a8.69,8.69,0,0,1,0-3.32Zm17.31,6.71a9,9,0,0,1-2.34,2.34l.79.79a1.07,1.07,0,0,0,1.53,0l.81-.81a1.07,1.07,0,0,0,0-1.53Zm2.53-6.71H20.79a8.69,8.69,0,0,1,0,3.32h1.13A1.09,1.09,0,0,0,23,20.58V19.43A1.09,1.09,0,0,0,21.92,18.34ZM4.61,25.05l-.8.79a1.09,1.09,0,0,0,0,1.53l.82.82a1.09,1.09,0,0,0,1.53,0l.79-.8A9,9,0,0,1,4.61,25.05Zm5.73,3.74v1.13A1.09,1.09,0,0,0,11.42,31h1.15a1.09,1.09,0,0,0,1.09-1.08V28.79a8.69,8.69,0,0,1-3.32,0Z"/><path class="cls-4" d="M10.34,10.74v.47a8.69,8.69,0,0,1,3.32,0v-.47a8.69,8.69,0,0,0-3.32,0ZM19.39,15l.33-.33a9.46,9.46,0,0,0-2.34-2.34l-.33.33A9,9,0,0,1,19.39,15ZM2.74,18.34a8.69,8.69,0,0,0,0,3.32h.47a8.69,8.69,0,0,1,0-3.32Zm14.31,9.05.33.33a9.46,9.46,0,0,0,2.34-2.34l-.33-.33A9,9,0,0,1,17.05,27.39Zm4.21-9h-.47a8.69,8.69,0,0,1,0,3.32h.47a9.26,9.26,0,0,0,0-3.32ZM10.34,28.79v.47a9.26,9.26,0,0,0,3.32,0v-.47a8.69,8.69,0,0,1-3.32,0ZM4.61,25.05l-.33.33a9.29,9.29,0,0,0,2.34,2.34L7,27.39A9,9,0,0,1,4.61,25.05ZM4.28,14.62l.33.33A9,9,0,0,1,7,12.61l-.33-.33A9.29,9.29,0,0,0,4.28,14.62Z"/><path class="cls-5" d="M17.84,11.81l-.79.8a8.77,8.77,0,0,0-3.39-1.4V10.08A1.09,1.09,0,0,0,12.57,9H11.42a1.09,1.09,0,0,0-1.08,1.08v1.13A8.77,8.77,0,0,0,7,12.61l-.79-.8a1.09,1.09,0,0,0-1.53,0l-.82.82a1.09,1.09,0,0,0,0,1.53l.8.79a8.77,8.77,0,0,0-1.4,3.39H2.08A1.09,1.09,0,0,0,1,19.43v1.15a1.09,1.09,0,0,0,1.08,1.08H3.21a8.77,8.77,0,0,0,1.4,3.39l-.8.79a1.09,1.09,0,0,0,0,1.53l.48.47L19.84,12.29l-.47-.48A1.09,1.09,0,0,0,17.84,11.81Z"/></g><path class="cls-6" d="M23,18.76a.25.25,0,0,1-.26.24H1.26A.25.25,0,0,1,1,18.76v-.52A.25.25,0,0,1,1.26,18H22.74a.25.25,0,0,1,.26.24Z"/><path class="cls-6" d="M19,21.76c0,.13-.08.24-.17.24H5.17c-.09,0-.17-.11-.17-.24v-.52c0-.13.08-.24.17-.24H18.83c.09,0,.17.11.17.24Z"/></svg>