<svg id="Layer_1" data-name="Layer 1" xmlns="http://www.w3.org/2000/svg" viewBox="0 0 24 24"><defs><style>.cls-1{fill:#00e1ff;}.cls-2{fill:#00c6f4;}.cls-3{fill:#fff;}.cls-4{fill:#f2f4f9;}</style></defs><path class="cls-1" d="M23,12s-4,7-11,7S1,12,1,12,5,5,12,5,23,12,23,12Z"/><path class="cls-2" d="M12,19c7,0,11-7,11-7a16.69,16.69,0,0,0-5.53-5.47L6.53,17.47A10.78,10.78,0,0,0,12,19Z"/><circle class="cls-3" cx="12" cy="12" r="5"/><path class="cls-4" d="M8.46,15.54a5,5,0,0,0,7.08-7.08Z"/><path d="M13.37,11.93a1,1,0,0,1-.78-1.83A1.92,1.92,0,0,0,12,10a2,2,0,1,0,2,2,1.86,1.86,0,0,0-.1-.58A1,1,0,0,1,13.37,11.93Z"/></svg>