<svg id="Layer_1" data-name="Layer 1" xmlns="http://www.w3.org/2000/svg" viewBox="0 0 24 24"><defs><style>.cls-1{fill:#00e1ff;}.cls-2{fill:#98d24d;}.cls-3{fill:#83ba36;}</style></defs><path class="cls-1" d="M12,8.76a.25.25,0,0,1-.26.24H2.26A.25.25,0,0,1,2,8.76V8.24A.25.25,0,0,1,2.26,8h9.48a.25.25,0,0,1,.26.24Z"/><path class="cls-1" d="M13,16.76a.27.27,0,0,1-.29.24H3.29A.27.27,0,0,1,3,16.76v-.52A.27.27,0,0,1,3.29,16h9.42a.27.27,0,0,1,.29.24Z"/><path class="cls-1" d="M15,12.76a.28.28,0,0,1-.3.24H8.3a.28.28,0,0,1-.3-.24v-.52A.28.28,0,0,1,8.3,12h6.4a.28.28,0,0,1,.3.24Z"/><path class="cls-2" d="M21.26,9.58a5.55,5.55,0,0,0,1.24-.41A3,3,0,0,0,21,8.37l.37-.16s-.08-.19-.62-.34c0-.11.37-.6.38-.86l-.14,0s0-.4,0-.58h-.11A2.24,2.24,0,0,0,21,5.36L21,5l-.08.1L21,5,20.6,5a2.28,2.28,0,0,0-1,.38l0-.1L19,5.51V5.36c-.25.08-.63.58-.74.58-.28-.49-.49-.53-.49-.53l-.06.4A3,3,0,0,0,16.54,4.5a6,6,0,0,0-.11,1.3l-.2-.12a2.11,2.11,0,0,0,0,.91,3.15,3.15,0,0,0-.49-.14,1.11,1.11,0,0,0,.15.69,2.23,2.23,0,0,0-.46,0,1.07,1.07,0,0,0-.83.31l.1.26c.28.82.86.89.86.89l-.37,0a.88.88,0,0,0,.82.49l-.28.09a1.2,1.2,0,0,0,.9.45l-.16.11c.12.12.44.1.64.1a6,6,0,0,1-1.08.55,2.67,2.67,0,0,1-1.19.31.09.09,0,0,0-.08.13s0,.12.16.11a3.49,3.49,0,0,0,1.5-.51c.29-.17.58-.29.78-.43.05.19.11.42.23.49l.07-.19a1.17,1.17,0,0,0,.65.77l0-.3a.9.9,0,0,0,.67.69l-.07-.36a1.18,1.18,0,0,0,1.07.62l.27,0a1.08,1.08,0,0,0,.11-.88,2.8,2.8,0,0,0-.14-.43,1.13,1.13,0,0,0,.7,0,2.77,2.77,0,0,0-.25-.44,2,2,0,0,0,.89-.21Z"/><path class="cls-3" d="M20.23,10.86a2.8,2.8,0,0,0-.14-.43,1.13,1.13,0,0,0,.7,0,2.77,2.77,0,0,0-.25-.44,2,2,0,0,0,.89-.21l-.17-.17a5.55,5.55,0,0,0,1.24-.41A3,3,0,0,0,21,8.37l.37-.16s-.08-.19-.62-.34c0-.11.37-.6.38-.86l-.14,0s0-.4,0-.58h-.11A2.24,2.24,0,0,0,21,5.36L21,5l-.08.1L21,5,17.12,9.83a6,6,0,0,1-1.08.55,2.67,2.67,0,0,1-1.19.31.09.09,0,0,0-.08.13s0,.12.16.11a3.49,3.49,0,0,0,1.5-.51c.29-.17.58-.29.78-.43.05.19.11.42.23.49l.07-.19a1.17,1.17,0,0,0,.65.77l0-.3a.9.9,0,0,0,.67.69l-.07-.36a1.18,1.18,0,0,0,1.07.62l.27,0A1.08,1.08,0,0,0,20.23,10.86Z"/><path class="cls-2" d="M21.28,18a4.5,4.5,0,0,0-.94-2.33A3.05,3.05,0,0,0,16,15.41,4.68,4.68,0,0,0,13.64,15a0,0,0,0,0-.05.06c0,.06.06.06.12.06a4.75,4.75,0,0,1,2.23.45,2.57,2.57,0,0,0-.29,1.1c0,1.82,2,2.15,2.17,2.19.67.11,3.51.46,3.77.53A4.57,4.57,0,0,1,21.28,18Z"/><path class="cls-3" d="M15.65,16.63c0,1.82,2,2.15,2.17,2.19.67.11,3.51.46,3.77.53a17.15,17.15,0,0,0-5.65-3.82A2.57,2.57,0,0,0,15.65,16.63Z"/></svg>