<svg enable-background="new 0 0 30 26" height="26" viewBox="0 0 30 26" width="30" xmlns="http://www.w3.org/2000/svg">
	<g>
	  <path d="M29.722,22.982l-12.999-22C16.363,0.374,15.708,0,15.001,0c-0.707,0-1.362,0.374-1.722,0.982l-13.001,22
	    c-0.366,0.618-0.372,1.385-0.016,2.009S1.282,26,2,26h26c0.718,0,1.381-0.385,1.737-1.009
	    C30.093,24.367,30.087,23.601,29.722,22.982z M2,24L15.001,2L28,24H2z" fill="#DD1212"/>
	  <ellipse cx="15" cy="20.03" rx="2" ry="1.97" fill="#DD1212"/>
	  <path d="M17,8c0,1.104,0,9-2,9c-2,0-2-7.896-2-9s0.896-2,2-2C16.104,6,17,6.896,17,8z" fill="#DD1212" />
	</g>
</svg>