<svg id="Layer_1" data-name="Layer 1" xmlns="http://www.w3.org/2000/svg" viewBox="0 0 24 24"><defs><style>.cls-1{fill:#fff;}.cls-2{fill:#7f7f7f;}</style></defs><path class="cls-1" d="M12,3.05a9,9,0,1,0,9,9A9,9,0,0,0,12,3.05Z"/><path class="cls-2" d="M16,15.24h0L13.72,13A2,2,0,0,0,11,10.28l-2.4-2.4h1.87v-1H7.21a.33.33,0,0,0-.33.33v3.25h1V8.59l2.4,2.4A2,2,0,0,0,13,13.72L15.24,16h0a2,2,0,0,0-.06,1.92l.89-.46A1,1,0,0,1,16,17a1,1,0,0,1,1-1,1,1,0,0,1,.46.12l.46-.89A2,2,0,0,0,16,15.24ZM12,13a1,1,0,1,1,1-1A1,1,0,0,1,12,13Z"/></svg>