<svg id="Layer_1" data-name="Layer 1" xmlns="http://www.w3.org/2000/svg" viewBox="0 0 24 24"><defs><style>.cls-1{fill:#fff;}.cls-2{fill:#ededed;}.cls-3{fill:#dbdbdb;}.cls-4{fill:#c9c9c9;}.cls-5{fill:#b7b7b7;}.cls-6{fill:#a5a5a5;}</style></defs><path class="cls-1" d="M3.75,15.5A2.75,2.75,0,0,1,1,12.75v-4a.75.75,0,0,1,1.5,0v4a1.25,1.25,0,0,0,2.5,0v-4a.75.75,0,0,1,1.5,0v4A2.75,2.75,0,0,1,3.75,15.5Z"/><path class="cls-1" d="M9.75,15.5A.75.75,0,0,1,9,15L7,9a.75.75,0,1,1,1.42-.48l1.29,3.87L11,8.51A.75.75,0,1,1,12.46,9l-2,6A.75.75,0,0,1,9.75,15.5Z"/><rect class="cls-2" x="14" y="16" width="8" height="1"/><rect class="cls-3" x="14" y="13" width="8" height="1"/><rect class="cls-4" x="14" y="10" width="8" height="1"/><rect class="cls-5" x="14" y="7" width="8" height="1"/><rect class="cls-6" x="14" y="4" width="8" height="1"/><rect class="cls-1" x="14" y="19" width="8" height="1"/></svg>