<svg id="Layer_1" data-name="Layer 1" xmlns="http://www.w3.org/2000/svg" viewBox="0 0 24 24"><defs><style>.cls-1{fill:#f2f2f2;}.cls-2{fill:#fff;}.cls-3{fill:#afafaf;}</style></defs><path class="cls-1" d="M21,12A9,9,0,1,1,12,3.05,9,9,0,0,1,21,12Z"/><path class="cls-2" d="M5.67,5.67a8.94,8.94,0,0,0,0,12.66L18.33,5.67A8.94,8.94,0,0,0,5.67,5.67Z"/><path class="cls-3" d="M13.41,10.59A2,2,0,0,0,11,10.28l-2.4-2.4h1.87v-1H7.21a.33.33,0,0,0-.33.33v3.25h1V8.59l2.4,2.4A2,2,0,0,0,13,13.72L15.24,16h0a2,2,0,0,0-.06,1.92l.89-.46A1,1,0,0,1,16,17a1,1,0,0,1,1-1,1,1,0,0,1,.46.12l.46-.89a2,2,0,0,0-1.92.06h0L13.72,13A2,2,0,0,0,13.41,10.59ZM11,12a1,1,0,1,1,1,1A1,1,0,0,1,11,12Z"/></svg>