<svg id="Layer_1" data-name="Layer 1" xmlns="http://www.w3.org/2000/svg" xmlns:xlink="http://www.w3.org/1999/xlink" viewBox="0 0 24 24"><defs><style>.cls-1{fill:none;}.cls-2{clip-path:url(#clip-path);}.cls-3{fill:#ededed;}.cls-4{fill:#f1f2f2;}.cls-5{fill:#d1d3d4;}.cls-6{fill:#cecece;}.cls-7{fill:#fff;}.cls-8{fill:#afafaf;}</style><clipPath id="clip-path"><rect class="cls-1" width="24" height="17"/></clipPath></defs><g class="cls-2"><path class="cls-3" d="M10.34,20.79v1.13A1.09,1.09,0,0,0,11.42,23h1.15a1.09,1.09,0,0,0,1.09-1.08V20.79a8.69,8.69,0,0,1-3.32,0Z"/><path class="cls-4" d="M13.66,3.21V2.08A1.09,1.09,0,0,0,12.57,1H11.42a1.09,1.09,0,0,0-1.08,1.08V3.21a8.69,8.69,0,0,1,3.32,0Z"/><path class="cls-4" d="M4.61,7A9,9,0,0,1,7,4.61l-.79-.8a1.09,1.09,0,0,0-1.53,0l-.82.82a1.09,1.09,0,0,0,0,1.53Z"/><path class="cls-3" d="M19.39,17.05a9,9,0,0,1-2.34,2.34l.79.79a1.07,1.07,0,0,0,1.53,0l.81-.81a1.07,1.07,0,0,0,0-1.53Z"/><path class="cls-4" d="M3.21,13.66a8.69,8.69,0,0,1,0-3.32H2.08A1.09,1.09,0,0,0,1,11.43v1.14a1.09,1.09,0,0,0,1.08,1.09Z"/><path class="cls-3" d="M21.92,10.34H20.79a8.69,8.69,0,0,1,0,3.32h1.13A1.09,1.09,0,0,0,23,12.57V11.43A1.09,1.09,0,0,0,21.92,10.34Z"/><path class="cls-3" d="M20.18,4.63l-.34-.34-.47-.48a1.09,1.09,0,0,0-1.53,0l-.79.8A9.26,9.26,0,0,1,19.39,7l.79-.79A1.07,1.07,0,0,0,20.18,4.63Z"/><path class="cls-3" d="M5.74,18.39a9,9,0,0,1-1.13-1.34l-.8.79a1.09,1.09,0,0,0,0,1.53l.48.47.34.35a1.09,1.09,0,0,0,1.53,0l.79-.8A8.24,8.24,0,0,1,5.74,18.39Z"/><path class="cls-3" d="M18.39,5.73A9,9,0,1,0,21,12,8.94,8.94,0,0,0,18.39,5.73Z"/><path class="cls-5" d="M3.21,13.66a8.69,8.69,0,0,1,0-3.32H2.74a8.69,8.69,0,0,0,0,3.32Z"/><path class="cls-6" d="M5.74,18.39c-.21-.2-.4-.41-.59-.63a.84.84,0,0,1-.34.31c.19.22.39.44.6.64a9.67,9.67,0,0,0,1.21,1L7,19.39A8.24,8.24,0,0,1,5.74,18.39Z"/><path class="cls-5" d="M13.66,3.21V2.74a8.69,8.69,0,0,0-3.32,0v.47a8.69,8.69,0,0,1,3.32,0Z"/><path class="cls-5" d="M7,4.61l-.33-.33A9.29,9.29,0,0,0,4.28,6.62L4.61,7A9,9,0,0,1,7,4.61Z"/><path class="cls-6" d="M20.79,10.34a8.69,8.69,0,0,1,0,3.32h.47a9.26,9.26,0,0,0,0-3.32Z"/><path class="cls-6" d="M10.34,20.79v.47a9.26,9.26,0,0,0,3.32,0v-.47a8.69,8.69,0,0,1-3.32,0Z"/><path class="cls-6" d="M17.05,19.39l.33.33a9.46,9.46,0,0,0,2.34-2.34l-.33-.33A9,9,0,0,1,17.05,19.39Z"/><path class="cls-6" d="M18.71,5.41a7.41,7.41,0,0,0-.58-.54c-.09.12-.17.26-.27.37.18.16.36.32.53.5a8.93,8.93,0,0,1,1,1.21l.33-.33A9.67,9.67,0,0,0,18.71,5.41Z"/><path class="cls-7" d="M19.37,3.81a1.09,1.09,0,0,0-1.53,0l-.79.8a8.77,8.77,0,0,0-3.39-1.4V2.08A1.09,1.09,0,0,0,12.57,1H11.42a1.09,1.09,0,0,0-1.08,1.08V3.21A8.77,8.77,0,0,0,7,4.61l-.79-.8a1.09,1.09,0,0,0-1.53,0l-.82.82a1.09,1.09,0,0,0,0,1.53l.8.79a8.77,8.77,0,0,0-1.4,3.39H2.08A1.09,1.09,0,0,0,1,11.43v1.14a1.09,1.09,0,0,0,1.08,1.09H3.21a8.77,8.77,0,0,0,1.4,3.39l-.8.79a1.09,1.09,0,0,0,0,1.53l.48.47,7.78-7.78,7.77-7.77Z"/><polygon class="cls-7" points="19.84 4.29 12.06 12.06 19.84 4.29 19.84 4.29"/><path class="cls-3" d="M4.61,17.05l-.33.33a9.57,9.57,0,0,0,1.13,1.33l.33-.32A9,9,0,0,1,4.61,17.05Z"/><path class="cls-3" d="M3.21,13.66a8.69,8.69,0,0,1,0-3.32H2.74a8.69,8.69,0,0,0,0,3.32Z"/><path class="cls-3" d="M13.66,3.21V2.74a8.69,8.69,0,0,0-3.32,0v.47a8.69,8.69,0,0,1,3.32,0Z"/><path class="cls-3" d="M7,4.61l-.33-.33A9.29,9.29,0,0,0,4.28,6.62L4.61,7A9,9,0,0,1,7,4.61Z"/><path class="cls-3" d="M17.37,4.28l-.32.33a9.59,9.59,0,0,1,1.34,1.12l.33-.32A9.09,9.09,0,0,0,17.37,4.28Z"/></g><path class="cls-8" d="M23,18.76a.25.25,0,0,1-.26.24H1.26A.25.25,0,0,1,1,18.76v-.52A.25.25,0,0,1,1.26,18H22.74a.25.25,0,0,1,.26.24Z"/><path class="cls-8" d="M19,21.76c0,.13-.08.24-.17.24H5.17c-.09,0-.17-.11-.17-.24v-.52c0-.13.08-.24.17-.24H18.83c.09,0,.17.11.17.24Z"/></svg>