<svg id="Layer_1" data-name="Layer 1" xmlns="http://www.w3.org/2000/svg" viewBox="0 0 24 24"><defs><style>.cls-1{fill:#fff;}.cls-2{fill:#ccc;}.cls-3{fill:#afafaf;}</style></defs><path class="cls-1" d="M9.07,8.76a2,2,0,0,0-2.83,0L2,13l.71.71L7,9.46a1,1,0,0,1,1.41,0,1,1,0,0,1,0,1.42.5.5,0,0,0,.71.71A2,2,0,0,0,9.07,8.76Z"/><path class="cls-1" d="M23.07,8.76a2,2,0,0,0-2.83,0L15,14l.71.71L21,9.46a1,1,0,0,1,1.41,0,1,1,0,0,1,0,1.42.5.5,0,0,0,.71.71A2,2,0,0,0,23.07,8.76Z"/><path class="cls-2" d="M2,13v2.5A2.78,2.78,0,0,0,5,18a2.78,2.78,0,0,0,3-2.5V13Z"/><path class="cls-3" d="M5,18a2.78,2.78,0,0,0,3-2.5V13L2.53,16.91A3.17,3.17,0,0,0,5,18Z"/><path class="cls-2" d="M10,13v2.5A2.78,2.78,0,0,0,13,18a2.78,2.78,0,0,0,3-2.5V13Z"/><path class="cls-3" d="M13,18a2.78,2.78,0,0,0,3-2.5V13l-5.47,3.91A3.17,3.17,0,0,0,13,18Z"/><rect class="cls-1" x="8" y="13" width="2" height="1"/></svg>