<svg id="Layer_1" data-name="Layer 1" xmlns="http://www.w3.org/2000/svg" viewBox="0 0 24 24"><defs><style>.cls-1{fill:#00e1ff;}.cls-2{fill:#ff4800;}</style></defs><path class="cls-1" d="M21.25,12.07l-.45-.77L15.55,2.39a.58.58,0,0,0-1.1,0L9.2,11.31l-.12.19h2.66a.75.75,0,0,1,.76.74v.52a.75.75,0,0,1-.76.74H8.21a6.52,6.52,0,0,0-.17,1h3.75a.73.73,0,0,1,.71.74v.52a.73.73,0,0,1-.71.74H8.14a6.75,6.75,0,0,0,.29,1h3.4a.7.7,0,0,1,.67.74v.52a.7.7,0,0,1-.67.74H9.6A7,7,0,0,0,15,22a6.93,6.93,0,0,0,7-6.86A6.63,6.63,0,0,0,21.25,12.07Z"/><path class="cls-2" d="M12,12.76a.25.25,0,0,1-.26.24H1.26A.25.25,0,0,1,1,12.76v-.52A.25.25,0,0,1,1.26,12H11.74a.25.25,0,0,1,.26.24Z"/><path class="cls-2" d="M12,15.76a.23.23,0,0,1-.21.24H3.21A.23.23,0,0,1,3,15.76v-.52A.23.23,0,0,1,3.21,15h8.58a.23.23,0,0,1,.21.24Z"/><path class="cls-2" d="M12,18.76c0,.13-.08.24-.17.24H5.17c-.09,0-.17-.11-.17-.24v-.52c0-.13.08-.24.17-.24h6.66c.09,0,.17.11.17.24Z"/></svg>