<svg id="Layer_1" data-name="Layer 1" xmlns="http://www.w3.org/2000/svg" viewBox="0 0 24 24"><defs><style>.cls-1{fill:#00e1ff;}</style></defs><path class="cls-1" d="M12,3.05a9,9,0,1,0,9,9A9,9,0,0,0,12,3.05Zm5.41,13A1,1,0,0,0,17,16a1,1,0,0,0-1,1,1,1,0,0,0,.12.46l-.89.46A2,2,0,0,1,15.24,16h0L13,13.72A2,2,0,0,1,10.28,11l-2.4-2.4v1.87h-1V7.21a.33.33,0,0,1,.33-.33h3.25v1H8.59l2.4,2.4A2,2,0,0,1,13.72,13L16,15.24h0a2,2,0,0,1,1.92-.06Z"/><path class="cls-1" d="M12,11a1,1,0,1,0,1,1A1,1,0,0,0,12,11Z"/></svg>