<svg id="Layer_1" data-name="Layer 1" xmlns="http://www.w3.org/2000/svg" xmlns:xlink="http://www.w3.org/1999/xlink" viewBox="0 0 24 24"><defs><style>.cls-1{fill:none;}.cls-2{clip-path:url(#clip-path);}.cls-3{fill:#ffda24;}.cls-4{fill:#00c6f4;}</style><clipPath id="clip-path"><rect class="cls-1" width="24" height="17"/></clipPath></defs><g class="cls-2"><path class="cls-3" d="M21.8,10.23h-1A8.8,8.8,0,0,0,19.47,7l.71-.71a1.21,1.21,0,0,0,0-1.7l-.8-.8-.09.09.09-.09a1.24,1.24,0,0,0-.85-.35,1.2,1.2,0,0,0-.85.35L17,4.53A8.78,8.78,0,0,0,13.76,3.2v-1A1.19,1.19,0,0,0,12.57,1H11.43a1.2,1.2,0,0,0-1.2,1.2v1A8.8,8.8,0,0,0,7,4.53l-.71-.71a1.2,1.2,0,0,0-.85-.35,1.18,1.18,0,0,0-.84.35h0l-.8.8a1.21,1.21,0,0,0,0,1.7l.71.7A8.92,8.92,0,0,0,3.2,10.23h-1A1.2,1.2,0,0,0,1,11.43v1.14a1.2,1.2,0,0,0,1.2,1.2h1A8.8,8.8,0,0,0,4.53,17l-.71.71a1.22,1.22,0,0,0-.35.85,1.24,1.24,0,0,0,.35.85l.8.8a1.22,1.22,0,0,0,.85.35h0a1.2,1.2,0,0,0,.85-.35L7,19.47a8.8,8.8,0,0,0,3.2,1.33v1a1.2,1.2,0,0,0,1.2,1.2h1.14a1.19,1.19,0,0,0,1.19-1.2v-1A8.78,8.78,0,0,0,17,19.47l.71.71a1.2,1.2,0,0,0,.85.35,1.24,1.24,0,0,0,.85-.35l.8-.8a1.24,1.24,0,0,0,.35-.85,1.2,1.2,0,0,0-.35-.85L19.47,17a8.8,8.8,0,0,0,1.33-3.2h1a1.2,1.2,0,0,0,1.2-1.2V11.43A1.2,1.2,0,0,0,21.8,10.23Z"/></g><path class="cls-4" d="M23,18.76a.25.25,0,0,1-.26.24H1.26A.25.25,0,0,1,1,18.76v-.52A.25.25,0,0,1,1.26,18H22.74a.25.25,0,0,1,.26.24Z"/><path class="cls-4" d="M19,21.76c0,.13-.08.24-.17.24H5.17c-.09,0-.17-.11-.17-.24v-.52c0-.13.08-.24.17-.24H18.83c.09,0,.17.11.17.24Z"/></svg>