<svg id="Layer_1" data-name="Layer 1" xmlns="http://www.w3.org/2000/svg" viewBox="0 0 24 24"><defs><style>.cls-1{fill:#fff;}</style></defs><rect class="cls-1" x="11" y="5" width="1" height="4" rx="0.5"/><rect class="cls-1" x="20.5" y="14.5" width="1" height="4" rx="0.5" transform="translate(37.5 -4.5) rotate(90)"/><rect class="cls-1" x="1.5" y="14.5" width="1" height="4" rx="0.5" transform="translate(18.5 14.5) rotate(90)"/><rect class="cls-1" x="17.72" y="7.78" width="1" height="4" rx="0.5" transform="translate(12.25 -10.02) rotate(45)"/><rect class="cls-1" x="4.28" y="7.78" width="1" height="4" rx="0.5" transform="translate(15.08 13.32) rotate(135)"/><path class="cls-1" d="M15.68,19.74a.45.45,0,0,1-.27-.08.5.5,0,0,1-.15-.69A4.42,4.42,0,0,0,16,16.5a4.5,4.5,0,0,0-9,0A4.42,4.42,0,0,0,7.74,19a.5.5,0,0,1-.84.55,5.5,5.5,0,1,1,9.2,0A.52.52,0,0,1,15.68,19.74Z"/></svg>