<svg id="Layer_1" data-name="Layer 1" xmlns="http://www.w3.org/2000/svg" viewBox="0 0 24 24"><defs><style>.cls-1{fill:#7cd5ff;}.cls-2{fill:#ffa052;fill-rule:evenodd;}</style></defs><path class="cls-1" d="M21.25,12.07,15,2,9.93,10.17a.5.5,0,0,0,.17.69l.43.26a.5.5,0,0,0,.68-.17L15,4.84l4.94,8a5.2,5.2,0,0,1,.56,2.34A5.44,5.44,0,0,1,15,20.5a5.56,5.56,0,0,1-3-.86.47.47,0,0,0-.51,0l-1.15.65A7,7,0,0,0,15,22a6.93,6.93,0,0,0,7-6.86A6.63,6.63,0,0,0,21.25,12.07Z"/><path class="cls-2" d="M15.16,12.09a.62.62,0,0,0-.71,0,5.53,5.53,0,0,1-5.56.23A7.14,7.14,0,0,0,1,13.19l.84.72a.62.62,0,0,0,.71,0,5.53,5.53,0,0,1,5.56-.23A7.14,7.14,0,0,0,16,12.81Z"/><path class="cls-2" d="M15.16,15.59a.62.62,0,0,0-.71,0,5.53,5.53,0,0,1-5.56.23A7.14,7.14,0,0,0,1,16.69l.84.72a.62.62,0,0,0,.71,0,5.53,5.53,0,0,1,5.56-.23A7.14,7.14,0,0,0,16,16.31Z"/></svg>