<svg id="Layer_1" data-name="Layer 1" xmlns="http://www.w3.org/2000/svg" viewBox="0 0 24 24"><defs><style>.cls-1,.cls-2{fill:#ffa052;}.cls-2{fill-rule:evenodd;}</style></defs><rect class="cls-1" x="11.25" y="10" width="1.5" height="3" rx="0.5"/><rect class="cls-1" x="17.97" y="12.78" width="1.5" height="3" rx="0.5" transform="translate(15.58 -9.05) rotate(45)"/><rect class="cls-1" x="4.53" y="12.78" width="1.5" height="3" rx="0.5" transform="translate(19.12 20.65) rotate(135)"/><path class="cls-2" d="M12,14a7,7,0,0,0-6.47,4.32l1.1.22a.63.63,0,0,0,.63-.31,5.48,5.48,0,0,1,9.48,0,.63.63,0,0,0,.63.31l1.1-.22A7,7,0,0,0,12,14Z"/></svg>